<svg width="520" height="180" viewBox="0 0 520 180" fill="none" xmlns="http://www.w3.org/2000/svg" role="img" aria-labelledby="title desc">
  <title id="title">CPS TechLabs Logo</title>
  <desc id="desc">Stylized CPS TechLabs wordmark with a code-themed icon.</desc>

  <rect width="520" height="180" rx="16" fill="white"/>

  <g transform="translate(24,26)">
    <rect x="44" y="8" width="150" height="94" rx="12" stroke="#06224F" stroke-width="8"/>
    <path d="M66 55L82 45V53L73 58L82 63V71L66 61V55Z" fill="#06224F"/>
    <path d="M103 78L122 36H131L112 78H103Z" fill="#06224F"/>
    <path d="M147 45L163 55V61L147 71V63L156 58L147 53V45Z" fill="#06224F"/>

    <g fill="#1C5CB8">
      <rect x="0" y="20" width="14" height="14" rx="3"/>
      <rect x="20" y="38" width="14" height="14" rx="3"/>
      <rect x="0" y="56" width="14" height="14" rx="3"/>
      <rect x="22" y="74" width="14" height="14" rx="3"/>
    </g>

    <path d="M18 102C62 128 138 128 238 92" stroke="#1C5CB8" stroke-width="10" stroke-linecap="round"/>
  </g>

  <text x="250" y="84" font-family="Segoe UI, Arial, sans-serif" font-size="46" font-weight="800" fill="#06224F" text-anchor="middle">CPS <tspan fill="#1C5CB8">TechLabs</tspan></text>
  <text x="250" y="124" font-family="Segoe UI, Arial, sans-serif" font-size="18" letter-spacing="5" fill="#0D1B34" text-anchor="middle">CODE. INNOVATE. SOLVE.</text>
</svg>
