<svg width="640" height="180" viewBox="0 0 640 180" fill="none" xmlns="http://www.w3.org/2000/svg" role="img" aria-labelledby="title desc">
  <title id="title">CPS TechLabs Logo</title>
  <desc id="desc">Professional CPS TechLabs brand mark with a code-inspired icon and clean wordmark.</desc>

  <rect width="640" height="180" rx="14" fill="#FFFFFF"/>

  <g transform="translate(28,30)">
    <g>
      <rect x="24" y="8" width="104" height="104" rx="18" fill="#EEF4FF"/>
      <rect x="24" y="8" width="104" height="104" rx="18" stroke="#1D4F9D" stroke-width="6"/>
      <path d="M54 60L68 50V58L62 62L68 66V74L54 64V60Z" fill="#123870"/>
      <path d="M76 86L92 34H98L82 86H76Z" fill="#123870"/>
      <path d="M106 50L120 60V64L106 74V66L112 62L106 58V50Z" fill="#123870"/>
    </g>

    <g fill="#2C69C5">
      <rect x="0" y="28" width="12" height="12" rx="3"/>
      <rect x="0" y="54" width="12" height="12" rx="3"/>
      <rect x="0" y="80" width="12" height="12" rx="3"/>
      <rect x="140" y="28" width="12" height="12" rx="3"/>
      <rect x="140" y="54" width="12" height="12" rx="3"/>
      <rect x="140" y="80" width="12" height="12" rx="3"/>
    </g>
  </g>

  <g font-family="Segoe UI, Inter, Arial, sans-serif">
    <text x="215" y="84" font-size="52" font-weight="800" fill="#0E2F63">
      CPS <tspan fill="#2C69C5">TechLabs</tspan>
    </text>
    <text x="217" y="118" font-size="16" font-weight="600" letter-spacing="3.2" fill="#425A79">
      CODE • INNOVATE • SOLVE
    </text>
  </g>
</svg>
